<?xml version="1.0" encoding="utf-8"?>
<!-- Generator: Adobe Illustrator 28.0.0, SVG Export Plug-In . SVG Version: 6.00 Build 0)  -->
<svg version="1.1" id="Layer_1" xmlns="http://www.w3.org/2000/svg" xmlns:xlink="http://www.w3.org/1999/xlink" x="0px" y="0px"
	 viewBox="0 0 250 250" enable-background="new 0 0 250 250" xml:space="preserve">
<path fill="#2C3E50" d="M232,108.2c0-3.2-2.6-5.8-5.8-5.8h-0.6c-3.2,0-5.8,2.6-5.8,5.8v17.1l-7.4,3.7V53.7
	c0-17.1-13.9-30.9-30.9-30.9H67.9C50.8,22.8,37,36.6,37,53.7l0,75.3l-7.4-3.7v-17.1c0-3.2-2.6-5.8-5.8-5.8h-0.6
	c-3.2,0-5.8,2.6-5.8,5.8v13.1c0,2.2,1.2,4.2,3.2,5.2l2.9,1.4L37,139.2V200c0,3.2,2.6,5.8,5.8,5.8l1.8,18.6c0,3.4,29.2,3.4,29.2,0
	v-15c0,2.9,101.8,2.9,101.8,0v15c0,3.4,29.2,3.4,29.2,0l1.8-18.6c3.2,0,5.8-2.6,5.8-5.8v-60.8l13.5-11.3l2.9-1.4c2-1,3.2-3,3.2-5.2
	V108.2z M197.6,59.2c3.9,0,7.1,1.9,7.1,4.3v69.4v4.3c0,2.4-3.2,4.3-7.1,4.3h-23.1L143,101.4V77.3h-5.8v52.1h5.8v-22.1l24,34.2H128
	V59.2H197.6z M44.7,177.1c0-3.5,2.8-6.3,6.3-6.3c3.5,0,6.3,2.8,6.3,6.3c0,3.5-2.8,6.3-6.3,6.3C47.5,183.3,44.7,180.5,44.7,177.1z
	 M78.8,154c3.9,0,7.1,3.2,7.1,7.1v4.1c0,3.9-3.2,7.1-7.1,7.1H65.2c-3.9,0-7.1-3.2-7.1-7.1v-4.1c0-3.9,3.2-7.1,7.1-7.1H78.8z
	 M140.9,185.3v14.9h-32.4v-14.9H140.9z M184.2,154c3.9,0,7.1,3.2,7.1,7.1v4.1c0,3.9-3.2,7.1-7.1,7.1h-13.6c-3.9,0-7.1-3.2-7.1-7.1
	v-4.1c0-3.9,3.2-7.1,7.1-7.1H184.2z M198.5,183.3c-3.5,0-6.3-2.8-6.3-6.3c0-3.5,2.8-6.3,6.3-6.3c3.5,0,6.3,2.8,6.3,6.3
	C204.7,180.5,201.9,183.3,198.5,183.3z M77.1,40.6c0-3.9,3.2-7.1,7.1-7.1h81c3.9,0,7.1,3.2,7.1,7.1v0.9c0,3.9-3.2,7.1-7.1,7.1h-81
	c-3.9,0-7.1-3.2-7.1-7.1V40.6z M44.7,63.5c0-2.4,3.2-4.3,7.1-4.3h69.6v82.3H82.4l24-34.2v22.1h5.8V77.3h-5.8v24.1l-31.5,40.2H51.8
	c-3.9,0-7.1-1.9-7.1-4.3v-4.3V63.5z"/>
</svg>
