<?xml version="1.0" encoding="utf-8"?>
<!-- Generator: Adobe Illustrator 28.0.0, SVG Export Plug-In . SVG Version: 6.00 Build 0)  -->
<svg version="1.1" id="Layer_1" xmlns="http://www.w3.org/2000/svg" xmlns:xlink="http://www.w3.org/1999/xlink" x="0px" y="0px"
	 viewBox="0 0 250 250" enable-background="new 0 0 250 250" xml:space="preserve">
<path fill="#2C3E50" d="M109.3,54.3h-7.4v6C73.4,61,52.8,63,52.8,66.4v10.1l9.8,3.6v8.5l30.2,1.8v47.4l-24.8,1.5v-37.4h-5.5v78.7
	l-6.5,2.7v13.7c0,2.2,7.4,3.9,21.4,4.9v6.7h-3.2l-14.7,35.5h13.1l10.9-32.2h82.2l10.9,32.2h13.1l-14.7-35.5H172v-6.7
	c13.9-1.1,21.4-2.7,21.4-4.9v-13.7l-6.5-2.7v-78.7h-5.5v37.4l-24.8-1.5V90.4l30.2-1.8v-8.5l9.8-3.6V66.4c0-3.4-21-5.5-49.8-6.2v-6
	h-7 M132.5,54.3h-16 M124.7,172.6c-4.9,0-8.9-3.6-8.9-8c0-4.4,4-8,8.9-8c4.9,0,8.9,3.6,8.9,8C133.6,169,129.6,172.6,124.7,172.6z
	 M146.8,137.8h-44.2V90.4h44.2V137.8z"/>
<path fill="#2C3E50" d="M178.3,57.3c4,0,7.8-1.7,10.5-4.5c0.7,0.4,1.4,0.7,2.1,1c0.6,0.2,1.2,0.1,1.7-0.2c0.5-0.3,0.8-0.9,0.8-1.5
	c0-1-0.6-1.8-1.5-2.2c-0.8-0.3-1.6-0.8-2.3-1.3c-0.4-0.3-1-0.5-1.5-0.4c-0.5,0.1-1,0.4-1.3,0.8c-2,2.7-5.2,4.3-8.5,4.3
	c-3.6,0-6.9-1.8-8.9-4.9c-0.3-0.5-0.8-0.8-1.3-0.9c-0.5-0.1-1.1,0-1.5,0.3c-1.1,0.8-2.4,1.2-3.7,1.2c-2.5,0-4.6-1.2-5.9-4.3
	c-0.3-0.6-0.8-1-1.4-1.2c-2.8-0.9-2.9-2.9-6-2.9c-10.9-0.4-3.2,3.8-0.4,3.8c0.2,0,0.5,0,0.7,0c1,1.1,2.3,2,3.6,2.6
	c1.7,3.6,5.3,6,9.4,6c1.5,0,3-0.3,4.4-1C169.9,55.4,173.9,57.3,178.3,57.3z"/>
<path fill="#2C3E50" d="M176.9,36.7c0.8-1.8,1.3-3.9,1.3-6c0-6.8-4.7-12.6-11.1-14.1c-0.8-7.2-7-12.9-14.4-12.9
	c-6.2,0-11.7,4-13.7,9.7c-0.5-0.1-0.9-0.1-1.4-0.1c-3.9,0-7.5,1.8-9.9,4.8c-0.8-0.2-1.7-0.3-2.5-0.3c-2.9,0-5.7,1.2-7.6,3.4
	c-0.2,0-0.5,0-0.7,0c-2.4,0-10.7,3.8,0.5,3.8c3.8,0,3.6-3.2,7.9-3.2c0.9,0,1.7,0.2,2.5,0.5c0.9,0.4,2,0.1,2.5-0.8
	c1.6-2.6,4.4-4.2,7.4-4.2c0.7,0,1.5,0.1,2.3,0.3c0.5,0.1,1.1,0.1,1.6-0.2c0.5-0.3,0.8-0.8,0.9-1.3c1-4.9,5.3-8.4,10.3-8.4
	c5.8,0,10.5,4.7,10.5,10.5v0.1c0,1,0.8,1.9,1.8,2c5.3,0.6,9.3,5.1,9.3,10.4c0,1.6-0.4,3.1-1,4.5c-0.2,0.5-0.2,1.1,0,1.6
	c0.2,0.5,0.7,0.9,1.2,1.1c0,0,0.1,0,0.2,0C175.5,38.1,176.5,37.6,176.9,36.7z"/>
</svg>
