<?xml version="1.0" encoding="utf-8"?>
<!-- Generator: Adobe Illustrator 28.0.0, SVG Export Plug-In . SVG Version: 6.00 Build 0)  -->
<svg version="1.1" id="Layer_1" xmlns="http://www.w3.org/2000/svg" xmlns:xlink="http://www.w3.org/1999/xlink" x="0px" y="0px"
	 viewBox="0 0 250 250" enable-background="new 0 0 250 250" xml:space="preserve">
<path fill="#2C3E50" d="M186.8,71.4V62l9.8-4V46.8c0-3.8-21-6.1-49.8-6.9v-6.6h-7l6.6-25l-6.8-1.8l-7.1,26.8h-16l6.6-25l-6.8-1.8
	l-7.1,26.8h-7.4v6.6c-28.5,0.8-49.1,3.1-49.1,6.9V58l9.8,4v9.5l30.2,2v52.6l-24.8,1.6V86.2h-5.5v87.4l-6.5,3v15.2
	c0,2.5,7.4,4.3,21.4,5.5v7.4h-3.2l-14.7,39.5h13.1l10.9-35.7h82.2l10.9,35.7h13.1l-14.7-39.5H172v-7.4c13.9-1.2,21.4-3,21.4-5.5
	v-15.2l-6.5-3V86.2h-5.5v41.5l-24.8-1.6V73.4L186.8,71.4z M124.7,164.6c-4.9,0-8.9-4-8.9-8.9c0-4.9,4-8.9,8.9-8.9
	c4.9,0,8.9,4,8.9,8.9C133.6,160.7,129.6,164.6,124.7,164.6z M146.8,126.1h-44.2V73.4h44.2V126.1z"/>
</svg>
