<?xml version="1.0" encoding="utf-8"?>
<!-- Generator: Adobe Illustrator 28.0.0, SVG Export Plug-In . SVG Version: 6.00 Build 0)  -->
<svg version="1.1" id="Layer_1" xmlns="http://www.w3.org/2000/svg" xmlns:xlink="http://www.w3.org/1999/xlink" x="0px" y="0px"
	 viewBox="0 0 250 250" enable-background="new 0 0 250 250" xml:space="preserve">
<path fill="#2C3E50" d="M183,58.3c4,0,7.8-1.7,10.5-4.5c0.7,0.4,1.4,0.7,2.1,1c0.6,0.2,1.2,0.1,1.7-0.2c0.5-0.3,0.8-0.9,0.8-1.5
	c0-1-0.6-1.8-1.5-2.2c-0.8-0.3-1.6-0.8-2.3-1.3c-0.4-0.3-1-0.5-1.5-0.4c-0.5,0.1-1,0.4-1.3,0.8c-2,2.7-5.2,4.3-8.5,4.3
	c-3.6,0-6.9-1.8-8.9-4.9c-0.3-0.5-0.8-0.8-1.3-0.9c-0.5-0.1-1.1,0-1.5,0.3c-1.1,0.8-2.4,1.2-3.7,1.2c-2.5,0-4.6-1.2-5.9-4.3
	c-0.3-0.6-0.8-1-1.4-1.2c-2.8-0.9-2.9-2.9-6-2.9c-10.9-0.4-3.2,3.8-0.4,3.8c0.2,0,0.5,0,0.7,0c1,1.1,2.3,2,3.6,2.6
	c1.7,3.6,5.3,6,9.4,6c1.5,0,3-0.3,4.4-1C174.7,56.4,178.7,58.3,183,58.3z"/>
<path fill="#2C3E50" d="M181.7,37.7c0.8-1.8,1.3-3.9,1.3-6c0-6.8-4.7-12.6-11.1-14.1c-0.8-7.2-7-12.9-14.4-12.9
	c-6.2,0-11.7,4-13.7,9.7c-0.5-0.1-0.9-0.1-1.4-0.1c-3.9,0-7.5,1.8-9.9,4.8c-0.8-0.2-1.7-0.3-2.5-0.3c-2.9,0-5.7,1.2-7.6,3.4
	c-0.2,0-0.5,0-0.7,0c-2.4,0-10.7,3.8,0.5,3.8c3.8,0,3.6-3.2,7.9-3.2c0.9,0,1.7,0.2,2.5,0.5c0.9,0.4,2,0.1,2.5-0.8
	c1.6-2.6,4.4-4.2,7.4-4.2c0.7,0,1.5,0.1,2.3,0.3c0.5,0.1,1.1,0.1,1.6-0.2c0.5-0.3,0.8-0.8,0.9-1.3c1-4.9,5.3-8.4,10.3-8.4
	c5.8,0,10.5,4.7,10.5,10.5v0.1c0,1,0.8,1.9,1.8,2c5.3,0.6,9.3,5.1,9.3,10.4c0,1.6-0.4,3.1-1,4.5c-0.2,0.5-0.2,1.1,0,1.6
	c0.2,0.5,0.7,0.9,1.2,1.1c0,0,0.1,0,0.2,0C180.3,39.1,181.3,38.6,181.7,37.7z"/>
<path fill="#2C3E50" d="M95,101.6l1.3-22.8l-26.7,3.3v12.6H81v29.4C82.7,115.2,87.7,107.1,95,101.6z"/>
<path fill="#2C3E50" d="M139.3,101.6c7.3,5.5,12.3,13.6,14,22.6V94.7h11.4V82.1L138,78.8L139.3,101.6z"/>
<path fill="#2C3E50" d="M153.9,173.2l10.8-4.6l-11.4-20.2v-10.9c-3.1,17.1-18.1,30.1-36.1,30.1c-18,0-33-13-36.1-30.1v10.9
	l-11.4,20.2l10.8,4.6l-20.6,5v14h-8.5v33.3h8.5v-11.3h10.6l13.1-26.6h67.4l13.1,26.6h10.6v11.3h8.5v-33.3h-8.5v-14L153.9,173.2z"/>
<path fill="#2C3E50" d="M144.7,197.4h-55L69.2,239l47.9,6.9l47.9-6.9L144.7,197.4z M84.1,231.1l11.7-23.8h4l-7.9,24.9L84.1,231.1z
	 M101.4,233.6l8.4-26.3h2.6v27.9L101.4,233.6z M121.9,235.2v-27.9h2.6l8.4,26.3L121.9,235.2z M142.5,232.2l-7.9-24.9h4l11.7,23.8
	L142.5,232.2z"/>
<path fill="#2C3E50" d="M117.2,157.7c14.8,0,26.8-12,26.8-26.8c0-10.3-5.8-19.2-14.3-23.7l-2.8-48.5l12.3-13.5V34.5H95.1v10.7
	l12.3,13.5l-2.8,48.5c-8.5,4.5-14.3,13.4-14.3,23.7C90.3,145.7,102.3,157.7,117.2,157.7z M108.1,130.9c0-5,4.1-9.1,9.1-9.1
	c5,0,9.1,4.1,9.1,9.1c0,5-4.1,9.1-9.1,9.1C112.2,139.9,108.1,135.9,108.1,130.9z"/>
</svg>
